<?xml version="1.0"?>
<svg width="200" height="200" xmlns="http://www.w3.org/2000/svg" xmlns:svg="http://www.w3.org/2000/svg">
 <g class="layer" display="inline">
  <title>bkgd</title>
  <rect fill="#ffffff" height="200.84" id="svg_4" width="200.84" x="0.08" y="-0.17"/>
 </g>
 <g class="layer" display="inline">
  <title>Layer 1</title>
  <g id="svg_3" transform="translate(0 -0.41841) translate(0 -0.41841) translate(0 -0.41841) translate(0 -0.41841) translate(0 -0.41841) translate(0 -0.41841) translate(0.41841 0) translate(0.41841 0) translate(0.41841 0) translate(0.41841 0) translate(0.41841 0) translate(0.41841 0) translate(0.41841 0) translate(0.41841 0) translate(0.41841 0) translate(8.92931 164.371) scale(0.976853 0.976853) translate(-8.92931 -164.371) translate(0 -0.41841) matrix(0.822434 0 0 0.822434 27.4413 14.4169)">
   <path d="m192.19,52.27c-2.52,-9.48 -9.93,-16.94 -19.33,-19.47c-17.06,-4.61 -85.48,-4.61 -85.48,-4.61s-68.41,0 -85.47,4.61c-9.42,2.53 -16.83,9.98 -19.34,19.47c-4.57,17.17 -4.57,53 -4.57,53s0,35.83 4.57,53c2.52,9.47 9.93,16.93 19.34,19.47c17.06,4.6 85.47,4.6 85.47,4.6s68.41,0 85.47,-4.6c9.42,-2.54 16.83,-9.99 19.34,-19.47c4.58,-17.17 4.58,-53 4.58,-53s0,-35.83 -4.58,-53" fill="red" id="svg_1"/>
   <path d="m71.33,134.56l61.34,-34.89l-61.34,-34.9l0,69.79z" fill="#fff" id="svg_2"/>
  </g>
 </g>
</svg>