<?xml version="1.0" encoding="UTF-8"?>
<svg version="1.1" viewBox="0 0 210 153" xmlns="http://www.w3.org/2000/svg" xmlns:xlink="http://www.w3.org/1999/xlink">
 <defs>
  <linearGradient id="m">
   <stop stop-color="#581d0f" offset="0"/>
   <stop stop-color="#b76229" offset=".50521"/>
   <stop stop-color="#581d0f" offset="1"/>
  </linearGradient>
  <linearGradient id="a">
   <stop stop-color="#feb838" offset="0"/>
   <stop stop-color="#eb9a25" offset="1"/>
  </linearGradient>
  <radialGradient id="p" cx="209.74" cy="40.512" r="9.6457" gradientUnits="userSpaceOnUse">
   <stop stop-color="#300909" offset="0"/>
   <stop stop-color="#a94a20" offset="1"/>
  </radialGradient>
  <radialGradient id="q" cx="195.94" cy="127.3" r="2.1647" gradientTransform="matrix(1.1947 0 0 3.3996 -31.808 -328.7)" gradientUnits="userSpaceOnUse" xlink:href="#a"/>
  <radialGradient id="r" cx="195.94" cy="127.3" r="2.1647" gradientTransform="matrix(1.3851 0 0 3.9413 -63.977 -396.49)" gradientUnits="userSpaceOnUse" xlink:href="#a"/>
  <radialGradient id="s" cx="195.94" cy="127.3" r="2.1647" gradientTransform="matrix(1.1947 0 0 3.3996 -21.468 -328.27)" gradientUnits="userSpaceOnUse" xlink:href="#a"/>
  <radialGradient id="t" cx="195.94" cy="127.3" r="2.1647" gradientTransform="matrix(1.1947 0 0 3.3996 -2.8044 -328.7)" gradientUnits="userSpaceOnUse" xlink:href="#a"/>
  <radialGradient id="u" cx="195.94" cy="127.3" r="2.1647" gradientTransform="matrix(1.3851 0 0 3.9413 -34.974 -396.49)" gradientUnits="userSpaceOnUse" xlink:href="#a"/>
  <radialGradient id="v" cx="195.94" cy="127.3" r="2.1647" gradientTransform="matrix(1.1947 0 0 3.3996 7.5356 -328.27)" gradientUnits="userSpaceOnUse" xlink:href="#a"/>
  <linearGradient id="x" x1="219.26" x2="219.26" y1="98.905" y2="116.48" gradientTransform="matrix(.63455 0 0 .63455 -90.419 33.032)" gradientUnits="userSpaceOnUse" xlink:href="#m"/>
  <radialGradient id="z" cx="225.54" cy="60.591" r="6.2972" gradientTransform="matrix(1.003 0 0 1.2282 -176.87 -12.575)" gradientUnits="userSpaceOnUse" xlink:href="#a"/>
  <radialGradient id="aa" cx="225.54" cy="60.591" r="6.2972" gradientTransform="matrix(1.0622 0 0 1.2282 -71.122 -12.043)" gradientUnits="userSpaceOnUse" xlink:href="#a"/>
  <radialGradient id="w" cx="209.74" cy="40.512" r="9.6457" gradientUnits="userSpaceOnUse">
   <stop stop-color="#092230" offset="0"/>
   <stop stop-color="#20a98e" offset="1"/>
  </radialGradient>
  <linearGradient id="y" x1="219.26" x2="219.26" y1="98.905" y2="116.48" gradientTransform="matrix(.63455 0 0 .63455 28.516 33.032)" gradientUnits="userSpaceOnUse" xlink:href="#m"/>
 </defs>
 <g transform="matrix(.80015 0 0 .80015 -131.26 13.872)" fill="#581d0f">
  <path d="m211.77 74.33c-20.471 2.6088 1.555 45.847 11.802 50.148 10.531 4.4206 36.073-7.6704 44.06-26.699 7.9875-19.028-0.62414-39.806-4.7578-41.41-18.194-7.0618-22.895 14.365-51.105 17.96z"/>
  <path d="m239.16 74.33c20.471 2.6088-1.555 45.847-11.802 50.148-10.531 4.4206-36.073-7.6704-44.06-26.699-7.9875-19.028 0.62414-39.806 4.7578-41.41 18.194-7.0618 22.895 14.365 51.105 17.96z"/>
 </g>
 <g transform="matrix(.80015 0 0 .80015 -131.54 13.571)">
  <path d="m260.07 79.056c0 25.251-21.681 50.989-34.244 50.989-12.911 0-34.244-25.738-34.244-50.989s15.331-40.453 34.244-40.453c18.912-5e-6 34.244 15.202 34.244 40.453z" fill="#80321c"/>
  <g transform="translate(1.5052)">
   <g fill="#80321c">
    <path d="m182.07 16.551c3.8796 4.7273 11.896 7.8134 12.275 14.592-4.3117 11.121 3.657 25.308 15.566 26.828 10.427 0.29054 16.427-11.68 16.135-20.863-2.1028-11.782-14.969-17.185-25.31-19.871-8.0492-2.3247-15.15-4.128-23.685-4.69z"/>
    <path d="m266.57 16.551c-6.7019 4.9154-11.896 7.8134-12.275 14.592 4.3117 11.121-3.657 25.308-15.566 26.828-10.427 0.29054-16.427-11.68-16.135-20.863 2.1028-11.782 14.969-17.185 25.31-19.871 8.0492-2.3247 16.655-4.8806 24.626-4.1256z"/>
   </g>
   <g transform="translate(.25453)">
    <path d="m259.17 44.969c1.8626 16.55-15.777 24.131-35.123 25.544-12.746 0.9313-35.845-9.4344-35.123-25.544 0.72123-16.099 10.67-32.463 35.123-32.463s33.332 16.545 35.123 32.463z" fill="#80321c"/>
    <path d="m256.4 44.556c1.715 15.956-14.479 24.627-32.34 24.627-17.861 1e-6 -34.055-9.1841-32.34-24.627 1.7035-15.34 14.479-31.297 32.34-31.297 17.861 4e-6 30.691 15.951 32.34 31.297z" fill="#a2432b"/>
   </g>
  </g>
 </g>
 <path d="m43.087 56.746c0.98466 3.2654 4.4795 7.5282 5.8715 12.828 2.1469-5.8411 5.8193-8.935 6.6722-12.721 0.85294-3.7864-13.567-3.5009-12.544-0.10645z" fill="url(#z)" fill-rule="evenodd"/>
 <g transform="matrix(.80015 0 0 .80015 -130.49 13.27)">
  <path d="m193.56 35.623c-5.2711 9.9021 0.3134 20.16 7.3264 25.258 1.4474 1.0521-0.14349-6.2401 2.7098-5.9345 16.082 1.7228 21.62-8.3374 20.489-16.897-0.94772-7.1682-9.7531-14.451-17.48-16.883-4.9956-1.5727-7.7714-2.7278-23.209-6.111 14.222 12.647 14.558 12.312 10.164 20.567z" fill="#ecac7a"/>
  <g transform="matrix(1.1006 0 0 1.1006 -21.464 -4.7658)">
   <circle cx="209.48" cy="40.778" r="11.907" fill="#fff"/>
   <circle cx="209.74" cy="40.512" r="9.6457" fill="url(#p)"/>
   <circle cx="209.62" cy="39.971" r="6.017"/>
   <circle cx="213.19" cy="36.397" r="2.4422" fill="#dbbaba"/>
  </g>
  <path d="m254.89 35.906c5.2711 9.9021 0.62736 19.69-6.3856 24.788-1.4474 1.0521 0.14349-6.2401-2.7098-5.9345-16.082 1.7228-21.62-8.3374-20.489-16.897 0.94772-7.1682 9.7531-14.451 17.48-16.883 4.9956-1.5727 7.7714-2.7278 23.209-6.111-14.222 12.647-15.499 12.783-11.105 21.037z" fill="#ecac7a"/>
  <g transform="matrix(1.1006 0 0 1.1006 9.1361 -4.7658)">
   <circle cx="209.48" cy="40.778" r="11.907" fill="#fff"/>
   <circle cx="209.74" cy="40.512" r="9.6457" fill="url(#p)"/>
   <circle cx="209.62" cy="39.971" r="6.017"/>
   <circle cx="213.19" cy="36.397" r="2.4422" fill="#dbbaba"/>
  </g>
 </g>
 <path d="m34.145 67.688c-1.7739 2.9584-2.8052 6.6295-2.8052 10.91 0 12.037 11.299 24.307 18.138 24.307 6.6546 0 18.139-12.269 18.139-24.307 0-4.2741-1.0283-7.9411-2.7974-10.897a24.804 12.646 0 0 1 -8.9907 2.2841 2.4841 3.8615 0 0 1 0.06249 0.8481 2.4841 3.8615 0 0 1 -2.4848 3.8622 2.4841 3.8615 0 0 1 -1.2721 -0.55134 2.4841 3.8615 0 0 1 -2.3411 2.5837 2.4841 3.8615 0 0 1 -2.302 -2.4191 2.4841 3.8615 0 0 1 -1.6112 0.92826 2.4841 3.8615 0 0 1 -2.4848 -3.8622 2.4841 3.8615 0 0 1 0.15784 -1.3502 24.804 12.646 0 0 1 -9.408 -2.3361z" fill="#ffb271"/>
 <rect x="-7.3462" y="99.051" width="118.02" height="6.9227" fill="url(#x)"/>
 <g transform="matrix(.80015 0 0 .80015 -127.06 18.087)">
  <path d="m223.61 109.06c-0.41042-0.0113-0.7777 0.0423-1.0977 0.16016-0.1209-0.0266-0.24204-0.0435-0.36328-0.0508-0.30861 6e-3 -0.61669 0.0744-0.92187 0.20508-2.9806-0.45936-8.558 3.309-13.387 9.0449-5.6558 6.7237-8.3255 23.381-5.9629 25.369 2.2548 1.8838 8.2887 1.2857 13.811-4.9698-0.011 0.39383-0.0175 0.78857-0.0195 1.1836 5e-5 10.185 2.9013 15.648 6.4805 15.649 3.5799 2e-3 6.4824-5.4623 6.4824-15.649-5.8e-4 -0.34074-4e-3 -0.68137-0.0117-1.0215 5.3657 6.1273 11.155 6.6223 13.387 4.8116 2.3914-1.9529-0.17507-18.648-5.7324-25.453-4.4124-5.4026-9.5468-9.1647-12.664-9.2793z" fill="#581d0f"/>
  <ellipse cx="202.28" cy="104.09" rx="2.5862" ry="7.3592" fill="url(#q)"/>
  <ellipse cx="207.42" cy="105.26" rx="2.9983" ry="8.5319" fill="url(#r)"/>
  <ellipse cx="212.62" cy="104.51" rx="2.5862" ry="7.3592" fill="url(#s)"/>
  <ellipse cx="231.29" cy="104.09" rx="2.5862" ry="7.3592" fill="url(#t)"/>
  <ellipse cx="236.42" cy="105.26" rx="2.9983" ry="8.5319" fill="url(#u)"/>
  <ellipse cx="241.63" cy="104.51" rx="2.5862" ry="7.3592" fill="url(#v)"/>
  <path d="m223.32 108.19c-0.33852-8e-3 -0.64145 0.0311-0.90536 0.11771-0.0998-0.0196-0.19964-0.032-0.29964-0.0373-0.25454 4e-3 -0.50865 0.0547-0.76037 0.15073-2.4584-0.33761-7.0587 2.432-11.041 6.6477-4.665 4.9416-6.867 17.184-4.9182 18.645 1.8597 1.3845 6.8366 0.94492 11.391-3.6526-9e-3 0.28945-0.0144 0.57957-0.0161 0.8699 3e-5 7.4856 2.393 11.501 5.3451 11.502 2.9528 1e-3 5.3467-4.0146 5.3468-11.502-4.7e-4 -0.25043-3e-3 -0.50078-0.0105-0.75076 4.4256 4.5033 9.2005 4.8671 11.041 3.5363 1.9724-1.4353-0.1444-13.706-4.7281-18.707-3.6394-3.9707-7.8742-6.7357-10.445-6.8199z" fill="#80321c"/>
 </g>
 <g transform="matrix(.80015 0 0 .80015 -12.326 13.872)" fill="#0f4b58">
  <path d="m211.77 74.33c-20.471 2.6088 1.555 45.847 11.802 50.148 10.531 4.4206 36.073-7.6704 44.06-26.699 7.9875-19.028-0.62414-39.806-4.7578-41.41-18.194-7.0618-22.895 14.365-51.105 17.96z"/>
  <path d="m239.16 74.33c20.471 2.6088-1.555 45.847-11.802 50.148-10.531 4.4206-36.073-7.6704-44.06-26.699-7.9875-19.028 0.62414-39.806 4.7578-41.41 18.194-7.0618 22.895 14.365 51.105 17.96z"/>
 </g>
 <g transform="matrix(.80015 0 0 .80015 -12.609 13.571)">
  <path d="m260.07 79.056c0 25.251-21.681 50.989-34.244 50.989-12.911 0-34.244-25.738-34.244-50.989s15.331-40.453 34.244-40.453c18.912-5e-6 34.244 15.202 34.244 40.453z" fill="#1c7580"/>
  <g transform="translate(1.5052)">
   <g fill="#1c7980">
    <path d="m182.07 16.551c3.8796 4.7273 11.896 7.8134 12.275 14.592-4.3117 11.121 3.657 25.308 15.566 26.828 10.427 0.29054 16.427-11.68 16.135-20.863-2.1028-11.782-14.969-17.185-25.31-19.871-8.0492-2.3247-16.279-3.9399-24.438-5.8189 1.9238 1.7109 3.8477 3.4219 5.7715 5.1328z"/>
    <path d="m266.57 16.551c-3.8796 4.7273-11.896 7.8134-12.275 14.592 4.3117 11.121-3.657 25.308-15.566 26.828-10.427 0.29054-16.427-11.68-16.135-20.863 2.1028-11.782 14.969-17.185 25.31-19.871 8.0492-2.3247 16.279-3.9399 24.438-5.8189-1.9238 1.7109-3.8477 3.4219-5.7715 5.1328z"/>
   </g>
   <g transform="translate(.25453)">
    <path d="m259.17 44.969c1.8626 16.55-15.777 24.131-35.123 25.544-12.746 0.9313-36.986-9.5262-35.123-25.544 1.8501-15.911 15.725-32.463 35.123-32.463 19.398 4e-6 33.332 16.545 35.123 32.463z" fill="#1c7980"/>
    <path d="m256.4 44.556c1.715 15.956-14.479 24.627-32.34 24.627-17.861 1e-6 -34.055-9.1841-32.34-24.627 1.7035-15.34 14.479-31.297 32.34-31.297 17.861 4e-6 30.691 15.951 32.34 31.297z" fill="#2ba29b"/>
   </g>
  </g>
 </g>
 <path d="m161.81 57.278c1.0427 3.2654 4.7437 7.5282 6.2179 12.828 2.2736-5.8411 6.1626-8.935 7.0658-12.721 0.90325-3.7864-14.368-3.5009-13.284-0.10645z" fill="url(#aa)" fill-rule="evenodd"/>
 <g transform="matrix(.80015 0 0 .80015 -11.557 13.27)">
  <path d="m193.56 35.623c-5.2711 9.9021 0.3134 20.16 7.3264 25.258 1.4474 1.0521-0.14349-6.2401 2.7098-5.9345 16.082 1.7228 21.62-8.3374 20.489-16.897-0.94772-7.1682-9.7531-14.451-17.48-16.883-4.9956-1.5727-7.7714-2.7278-23.209-6.111 14.222 12.647 14.558 12.312 10.164 20.567z" fill="#7aece6"/>
  <g transform="matrix(1.1006 0 0 1.1006 -21.464 -4.7658)">
   <circle cx="209.48" cy="40.778" r="11.907" fill="#fff"/>
   <circle cx="209.74" cy="40.512" r="9.6457" fill="url(#w)"/>
   <circle cx="209.62" cy="39.971" r="6.017"/>
   <circle cx="213.19" cy="36.397" r="2.4422" fill="#dbbaba"/>
  </g>
  <path d="m254.89 35.906c5.2711 9.9021 0.62736 19.69-6.3856 24.788-1.4474 1.0521 0.14349-6.2401-2.7098-5.9345-16.082 1.7228-21.62-8.3374-20.489-16.897 0.94772-7.1682 9.7531-14.451 17.48-16.883 4.9956-1.5727 7.7714-2.7278 23.209-6.111-14.222 12.647-15.499 12.783-11.105 21.037z" fill="#7aece6"/>
  <g transform="matrix(1.1006 0 0 1.1006 9.1361 -4.7658)">
   <circle cx="209.48" cy="40.778" r="11.907" fill="#fff"/>
   <circle cx="209.74" cy="40.512" r="9.6457" fill="url(#w)"/>
   <circle cx="209.62" cy="39.971" r="6.017"/>
   <circle cx="213.19" cy="36.397" r="2.4422" fill="#dbbaba"/>
  </g>
 </g>
 <path d="m153.08 67.688c-1.7739 2.9584-2.8052 6.6295-2.8052 10.91 0 12.037 11.299 24.307 18.138 24.307 6.6546 0 18.139-12.269 18.139-24.307 0-4.2741-1.0283-7.9411-2.7974-10.897a24.804 12.646 0 0 1 -8.9908 2.2841 2.4841 3.8615 0 0 1 0.0625 0.8481 2.4841 3.8615 0 0 1 -2.4848 3.8622 2.4841 3.8615 0 0 1 -1.2721 -0.55134 2.4841 3.8615 0 0 1 -2.3411 2.5837 2.4841 3.8615 0 0 1 -2.302 -2.4191 2.4841 3.8615 0 0 1 -1.6112 0.92826 2.4841 3.8615 0 0 1 -2.4848 -3.8622 2.4841 3.8615 0 0 1 0.15785 -1.3502 24.804 12.646 0 0 1 -9.408 -2.3361z" fill="#71fcff"/>
 <rect x="111.59" y="99.051" width="118.02" height="6.9227" fill="url(#y)"/>
 <g transform="matrix(.80015 0 0 .80015 -8.1303 18.087)">
  <path d="m223.61 109.06c-0.41042-0.0113-0.7777 0.0423-1.0977 0.16016-0.1209-0.0266-0.24204-0.0435-0.36328-0.0508-0.30861 6e-3 -0.61669 0.0744-0.92187 0.20508-2.9806-0.45936-8.558 3.309-13.387 9.0449-5.6558 6.7237-8.3255 23.381-5.9629 25.369 2.2548 1.8838 8.2887 1.2857 13.811-4.9698-0.011 0.39383-0.0175 0.78857-0.0195 1.1836 5e-5 10.185 2.9013 15.648 6.4805 15.649 3.5799 2e-3 6.4824-5.4623 6.4824-15.649-5.8e-4 -0.34074-4e-3 -0.68137-0.0117-1.0215 5.3657 6.1273 11.155 6.6223 13.387 4.8116 2.3914-1.9529-0.17507-18.648-5.7324-25.453-4.4124-5.4026-9.5468-9.1647-12.664-9.2793z" fill="#0f4b58"/>
  <ellipse cx="202.28" cy="104.09" rx="2.5862" ry="7.3592" fill="url(#q)"/>
  <ellipse cx="207.42" cy="105.26" rx="2.9983" ry="8.5319" fill="url(#r)"/>
  <ellipse cx="212.62" cy="104.51" rx="2.5862" ry="7.3592" fill="url(#s)"/>
  <ellipse cx="231.29" cy="104.09" rx="2.5862" ry="7.3592" fill="url(#t)"/>
  <ellipse cx="236.42" cy="105.26" rx="2.9983" ry="8.5319" fill="url(#u)"/>
  <ellipse cx="241.63" cy="104.51" rx="2.5862" ry="7.3592" fill="url(#v)"/>
  <path d="m223.32 108.19c-0.33852-8e-3 -0.64145 0.0311-0.90536 0.11771-0.0998-0.0196-0.19964-0.032-0.29964-0.0373-0.25454 4e-3 -0.50865 0.0547-0.76037 0.15073-2.4584-0.33761-7.0587 2.432-11.041 6.6477-4.665 4.9416-6.867 17.184-4.9182 18.645 1.8597 1.3845 6.8366 0.94492 11.391-3.6526-9e-3 0.28945-0.0144 0.57957-0.0161 0.8699 3e-5 7.4856 2.393 11.501 5.3451 11.502 2.9528 1e-3 5.3467-4.0146 5.3468-11.502-4.7e-4 -0.25043-3e-3 -0.50078-0.0105-0.75076 4.4256 4.5033 9.2005 4.8671 11.041 3.5363 1.9724-1.4353-0.1444-13.706-4.7281-18.707-3.6394-3.9707-7.8742-6.7357-10.445-6.8199z" fill="#1c7580"/>
 </g>
</svg>
