<?xml version="1.0" encoding="UTF-8"?>
<svg id="Layer_1" data-name="Layer 1" xmlns="http://www.w3.org/2000/svg" viewBox="0 0 49.7 18.6">
  <path d="m4.6,18.6c-.2,0-.3,0-.4-.2L0,11.7c0,0,0-.2,0-.3v-2.8c0-.2.1-.4.4-.5.2,0,.4,0,.6.2l4.2,6.7c0,0,0,.2,0,.3v2.8c-.1.2-.3.4-.5.5,0,0,0,0-.1,0h0Zm-3.6-7.3l3.2,5.2v-1s-3.2-5.1-3.2-5.1v1h0Z" fill="#010101"/>
  <path d="m4.6,18.6c-.1,0-.2,0-.3-.1-.1,0-.2-.2-.2-.4v-2.7c.1-.2.3-.4.5-.5L49.1,5.5c.2,0,.4,0,.5.2.1.1.2.3.1.5l-.9,2.8c0,.2-.2.3-.4.3L4.7,18.6s0,0-.1,0h0Zm.6-2.8v1.7c0,0,42.7-9.2,42.7-9.2l.6-1.7L5.2,15.9h0Z" fill="#010101"/>
  <rect x="13.5" y="13.4" width="2.6" height="2.4" fill="#010101"/>
  <rect x="17.8" y="12.7" width="2.2" height="2.4" fill="#010101"/>
  <rect x="22" y="11.8" width="1.9" height="2.4" transform="translate(-.2 .3) rotate(-.8)" fill="#010101"/>
  <rect x="25.6" y="11" width="1.8" height="2.4" transform="translate(-.2 .4) rotate(-.8)" fill="#010101"/>
  <rect x="29.4" y="10.3" width="1.7" height="2.4" transform="translate(-.2 .4) rotate(-.8)" fill="#010101"/>
  <rect x="32.7" y="9.5" width="1.3" height="2.4" transform="translate(-.1 .5) rotate(-.8)" fill="#010101"/>
  <rect x="35.6" y="9" width="1.3" height="2.4" transform="translate(-.1 .5) rotate(-.8)" fill="#010101"/>
  <rect x="38.5" y="8.1" width="1.3" height="2.4" transform="translate(-.1 .6) rotate(-.8)" fill="#010101"/>
  <rect x="41.1" y="7.7" width="1.3" height="2.4" transform="translate(-.1 .6) rotate(-.8)" fill="#010101"/>
  <rect x="43.8" y="7.1" width="1.3" height="2.4" transform="translate(-.1 .6) rotate(-.8)" fill="#010101"/>
  <path d="m.6,9c-.2,0-.4-.1-.5-.4,0-.3.1-.5.4-.6l4.4-1c.3,0,.5.1.6.4,0,.3-.1.5-.4.6l-4.4,1s0,0-.1,0h0Z" fill="#010101"/>
  <path d="m9.1,13.2l-4.4-4.7v-.2c0-.8-.2-2.7.3-3.4.4-.7,1-1.1,1.7-1.3.7-.2,12.6-1.5,13.8-1.6,1.3,0,16.3-1.9,17.1-2,.1,0,.2,0,.3,0,.4-.1,1-.2,1.4,0,.4.2,2.9,1.3,4.2,1.9.7.2,2.1.7,2.5,1.1.4.4.8,2,.6,2.5-.1.3-.2.5-37.3,7.6h-.3Zm-3.5-5.1l3.8,4.1c13.7-2.6,33.8-6.5,36.3-7.2,0-.4-.3-1.1-.4-1.3-.2-.2-1.2-.6-2.1-.9-.2,0-3.8-1.6-4.3-1.9-.2,0-.5,0-.8,0-.2,0-.3,0-.5.1-.1,0-15.7,1.9-17.2,2-1.4,0-13.1,1.4-13.7,1.5-.4,0-.8.4-1.1.9-.1.2-.2,1.4-.1,2.6h0Z" fill="#010101"/>
  <path d="m7.1,13.6c-.6,0-1.5-.1-1.8-.2-.2,0-.5-.2-3.2-4.6-.1-.2,0-.5.1-.6.2-.1.5,0,.6.1,1.2,1.8,2.5,3.9,2.8,4.2.3,0,1.4.2,1.6.1.1,0,.7-.3,1-.5.2-.1.5,0,.6.2.1.2,0,.5-.2.6-.2.1-1,.5-1.3.6,0,0-.2,0-.4,0h0Z" fill="#010101"/>
  <path d="m5,9c0,.2-.3.3-.7.3s-.7-.2-.7-.3.3-.3.7-.3.7.2.7.3Z" fill="#010101"/>
  <path d="m7.4,11.7c0,.2-.4.4-.8.4s-.8-.2-.8-.4.4-.4.8-.4.8.2.8.4Z" fill="#010101"/>
  <path d="m49.1,6.2c0,0-.2,0-.3,0l-2.9-1.8c-.2-.1-.3-.5-.2-.7.1-.2.5-.3.7-.2l2.9,1.8c.2.1.3.5.2.7,0,.2-.3.2-.4.2h0Z" fill="#010101"/>
  <path d="m9,12.6s0-1.1,0-1.5-.1-1.5-.2-2c-.3-.4-2.1-1.7-3.6-2.8-.2-.2-.3-.5-.1-.7.2-.2.5-.3.7-.1,3.9,2.7,4,3.2,4,3.4,0,.5.2,1.8.2,2.2s0,1.4,0,1.4h-1Z" fill="#010101"/>
  <path d="m9.3,9.9c-.2,0-.5-.2-.5-.4,0-.3.1-.5.4-.6L45,3.1c.3,0,.5.1.6.4,0,.3-.1.5-.4.6L9.4,9.9s0,0,0,0h0Z" fill="#010101"/>
  <path d="m6,6.7c-.2,0-.5-.2-.5-.4,0-.3.2-.5.4-.6L40.5,1.1c.3,0,.5.2.6.4,0,.3-.2.5-.4.6L6.1,6.7s0,0,0,0h0Z" fill="#010101"/>
</svg>