<?xml version="1.0" encoding="UTF-8"?>
<svg id="Layer_1" data-name="Layer 1" xmlns="http://www.w3.org/2000/svg" viewBox="0 0 500 500">
  <rect width="500" height="500" fill="#fff"/>
  <circle cx="250" cy="250" r="212" fill="#33b5aa"/>
  <g>
    <g>
      <path d="m310.8,248c0-48.6-46.1-88-103-88s-103,39.4-103,88,33.7,76.4,79.1,85.6v25.5l41.8-24.1-.4-.3c48.6-7.1,85.6-43.2,85.6-86.7Z" fill="#23998b"/>
      <path d="m403.2,248c0-43.6-41.4-79-92.5-79s-23.7,2-34.3,5.6c25.2,17.2,41.3,43.7,41.3,73.4s-16.1,56.2-41.3,73.4c10.2,3.5,21.2,5.4,32.8,5.6h0s29.6,17.1,29.6,17.1v-20.8c37.3-10.2,64.4-40,64.4-75.3Z" fill="#23998b"/>
    </g>
    <g>
      <path d="m302.8,250c0-48.6-46.1-88-103-88s-103,39.4-103,88,33.7,76.4,79.1,85.6v25.5l41.8-24.1-.4-.3c48.6-7.1,85.6-43.2,85.6-86.7Z" fill="#fff"/>
      <path d="m395.2,250c0-43.6-41.4-79-92.5-79s-23.7,2-34.3,5.6c25.2,17.2,41.3,43.7,41.3,73.4s-16.1,56.2-41.3,73.4c10.2,3.5,21.2,5.4,32.8,5.6h0s29.6,17.1,29.6,17.1v-20.8c37.3-10.2,64.4-40,64.4-75.3Z" fill="#fff"/>
    </g>
    <g>
      <g>
        <circle cx="153" cy="279.8" r="10.7" fill="#33b5aa"/>
        <path d="m160.8,278.7c-.4,0-.8-.3-1-.7-.6-2.3-2.4-4.2-4.7-5-.5-.2-.8-.7-.7-1.3.2-.5.7-.8,1.3-.7,3,.9,5.3,3.4,6.1,6.4.1.5-.2,1.1-.7,1.2,0,0-.2,0-.3,0Z" fill="#fff"/>
      </g>
      <g>
        <circle cx="199.4" cy="279.8" r="10.7" fill="#33b5aa"/>
        <path d="m207.3,278.7c-.4,0-.8-.3-1-.7-.6-2.3-2.4-4.2-4.7-5-.5-.2-.8-.7-.7-1.3.2-.5.7-.8,1.3-.7,3,.9,5.3,3.4,6.1,6.4.1.5-.2,1.1-.7,1.2,0,0-.2,0-.3,0Z" fill="#fff"/>
      </g>
      <g>
        <circle cx="245.9" cy="279.8" r="10.7" fill="#33b5aa"/>
        <path d="m253.7,278.7c-.4,0-.8-.3-1-.7-.6-2.3-2.4-4.2-4.7-5-.5-.2-.8-.7-.7-1.3.2-.5.7-.8,1.3-.7,3,.9,5.3,3.4,6.1,6.4.1.5-.2,1.1-.7,1.2,0,0-.2,0-.3,0Z" fill="#fff"/>
      </g>
    </g>
  </g>
</svg>