<?xml version="1.0" encoding="utf-8"?>
<!-- Generator: Adobe Illustrator 21.1.0, SVG Export Plug-In . SVG Version: 6.00 Build 0)  -->
<svg version="1.1" id="Capa_1" xmlns="http://www.w3.org/2000/svg" xmlns:xlink="http://www.w3.org/1999/xlink" x="0px" y="0px"
	 viewBox="0 0 504 504" style="enable-background:new 0 0 504 504;" xml:space="preserve">
<style type="text/css">
	.st0{clip-path:url(#SVGID_2_);fill:#413526;}
	.st1{fill:#E8BC64;}
	.st2{fill:#9AB236;}
	.st3{fill:#7E613B;}
	.st4{fill:#ECD73B;}
	.st5{fill:#971628;}
	.st6{fill:#DEB3B2;}
	.st7{fill:#413526;}
	.st8{fill:#E2AC4B;}
	.st9{fill:#EED4D5;}
</style>
<g>
	<g>
		<defs>
			<rect id="SVGID_1_" x="-82" y="23.4" width="668.1" height="443.7"/>
		</defs>
		<clipPath id="SVGID_2_">
			<use xlink:href="#SVGID_1_"  style="overflow:visible;"/>
		</clipPath>
		<path class="st0" d="M254.3,23.4c0.7,0,1.3,0,2,0c0.9,0.3,1.8,0.3,2.6,0c0.8,0,1.5,0,2.3,0c0.9,0.3,1.8,0.3,2.6,0
			c0.6,0,1.1,0,1.7,0c1.7,0.3,3.4,0.2,5,0.4c10.2,1.1,19.1,5.2,27.5,10.9c7,4.8,12.8,10.9,17.7,17.8c1.3,1.8,1.2,1.8,3.2,0.7
			c9.1-5.3,18.8-8.5,29.3-9.3c10.7-0.7,21.1,1,30.9,5.3c11.9,5.2,21.4,13.3,28.9,23.9c1.2,1.6,1.2,1.7,3.1,0.7
			c6.1-3.3,12.5-5.7,19.3-6.9c20.3-3.5,38.5,1.2,54.5,14.2c11.4,9.3,18.9,21.3,23.1,35.4c0.5,1.7,1.3,2.6,3.1,3.1
			c8.7,2.2,16.6,6.1,23.7,11.6c13.6,10.7,22.2,24.6,26.1,41.5c1.7,7.3,2,14.6,1.5,22c-0.5,7.9-2.3,15.5-5.4,22.8
			c-0.2,0.5-0.4,1-0.6,1.5c-0.7,1.2-0.5,2.2,0.3,3.4c3.9,6.2,7.6,12.6,10.9,19.2c8.7,17.6,14.6,36,17.5,55.4
			c0.8,5.3,0.9,10.7,1.1,16.1c0,0.6,0,1.3,0,1.9c0,1.1,0,2.1,0,3.2c0,1.4,0,2.8,0,4.2c0,1,0,2,0,3c0,0.6,0,1.2,0,1.7
			c0.2,12.5-2.8,24.3-8.1,35.5c-3.3,7-7.7,13.2-12.8,18.9c-7.9,8.7-17.3,15.4-27.6,20.8c-15.3,8.1-31.6,13.3-48.3,17.2
			c-11.5,2.7-23.1,4.8-34.8,6.7c-9.1,1.4-18.1,2.6-27.2,3.8c-6.4,0.8-12.9,1.5-19.3,2.2c-5.8,0.6-11.6,1.2-17.4,1.8
			c-5.2,0.6-10.5,1-15.7,1.5c-5.2,0.5-10.4,1.1-15.6,1.5c-4.1,0.4-8.2,0.8-12.3,1.1c-5,0.4-9.9,0.9-14.9,1.5
			c-3.8,0.4-7.7,0.7-11.5,1.1c-5.7,0.6-11.4,1.2-17,1.9c-5.1,0.6-10.1,1.2-15.2,1.8c-6.5,0.8-13.1,1.7-19.6,2.5
			c-5.7,0.7-11.3,1.5-17,2.2c-4.4,0.6-8.7,1.1-13.1,1.7c-4.9,0.7-9.9,1.3-14.9,1.9c-5.8,0.7-11.6,1.4-17.3,2.1
			c-4.5,0.5-9.1,1-13.6,1.5c-5.3,0.5-10.6,1.1-15.9,1.6c-4.5,0.4-9,0.9-13.4,1.4c-5.5,0.6-11,1.4-16.5,2.1c-7,0.9-13.9,2-20.9,2.9
			c-6.2,0.8-12.3,1.5-18.5,2.2c-3.1,0.3-6.3,0.3-9.4,0.4c-2.8,0.1-5.6,0.3-8.4,0.2c-0.8,0-1.6,0-2.3,0c-1.1,0-2.2,0-3.3,0
			c-2.7,0-5.4,0-8,0c-1.1,0-2.2,0-3.3,0c-0.7,0-1.3,0-2,0c-16.9,0.1-33.4-2.3-49.5-7.4c-12.3-3.9-23.7-9.4-33.4-18
			c-11.8-10.5-19.4-23.4-21.2-39.3c-0.8-7.1,0.1-14.2,2.7-20.9c0.7-1.9,0.7-1.9-1-3c-4.5-3-8.7-6.4-11.3-11.3
			c-0.4-0.7-1.1-1.1-1.8-1.4c-6.3-3.4-12.1-7.6-17.2-12.7c-7.3-7.3-12.6-15.9-16.3-25.5c-3-7.8-4.3-15.9-4.1-24.2c0-1.2,0-2.3,0-3.5
			c-0.5-17.7,5.8-32.9,16.9-46.4c3.4-4.1,7.3-7.7,11.5-10.8c1.2-0.9,1.4-1.7,1.1-3.1c-2-7.3-2.9-14.7-2.5-22.2
			c0.6-11.9,3.6-23.2,9.5-33.6c3.5-6.1,7.6-11.6,12.6-16.4c10.7-10.2,23.3-16.5,38.1-18.6c2.7-0.4,5.5-0.6,8.2-0.4
			c1.3,0.1,1.9-0.4,2-1.7c0.2-4.4,0.6-8.8,1.5-13.1c2.6-12.9,8.2-24.3,16.9-34.2c8.3-9.5,18.4-16.1,30.3-20c5-1.6,10.1-2.5,15.3-3
			c8.3-0.7,16.3,0.4,24.3,2.7c1.8,0.5,2,0.5,2.7-1.3c4-9.2,9.7-17.3,17-24.1c10.4-9.5,22.5-15.6,36.5-17.4
			c16.1-2.1,31.2,1.1,44.9,10c0.3,0.2,0.6,0.4,0.8,0.5c2.3,1.5,2.2,1.4,4-0.6c5-5.8,10.9-10.5,17.5-14.4c5.9-3.4,12.1-5.8,18.7-7.3
			c2.5-0.6,5.1-0.5,7.7-0.8C253.8,23.5,254.1,23.6,254.3,23.4L254.3,23.4z"/>
	</g>
	<path class="st1" d="M-20.6,381.6c2.1,3.7,4.5,7.1,7.5,10c9.9,9.2,22.6,8.2,30.9-2.5c5-6.5,7.4-14,8.7-22
		c1.2-7.9,1.2-15.9,0.8-23.9c-0.7-13.5,1-26.7,4.4-39.7c7.7-30.1,22.1-56.8,41.8-80.8c22.6-27.5,50.2-49,81.4-66
		c31.8-17.2,65.6-28.7,101.1-35c18.8-3.3,37.7-5.1,56.8-5.3c41.6-0.5,82,6.1,120.9,21.2c30.4,11.8,58,28.1,82.1,50.3
		c24.6,22.7,43,49.4,53.6,81.3c4.9,14.7,7.8,29.9,8.5,45.4c0.6,13.4-0.7,26.6-5.7,39.2c-5.7,14.6-15.6,25.7-28.4,34.4
		c-12.6,8.5-26.6,14.1-41,18.5c-15.3,4.6-31,7.8-46.8,10.3c-19.9,3.2-39.9,5.5-59.9,7.5c-16.7,1.7-33.4,3.1-50.1,4.8
		c-21.1,2-42.1,4.1-63.1,6.8c-17.8,2.3-35.7,4.7-53.5,6.9c-18.4,2.3-36.9,4.5-55.4,6.1c-11.8,1.1-23.6,2.8-35.3,4.4
		c-16.7,2.3-33.4,4.6-50.3,5.1c-21,0.6-41.8-1.1-62-7c-12-3.6-23.3-8.8-32.7-17.3c-8.9-8-14.9-17.8-17.2-29.7
		C-25.4,397-24,387.2-20.6,381.6L-20.6,381.6z"/>
	<path class="st2" d="M549,212.6c-1.9-2.4-3.6-4.8-5.6-7.1c-1.7-1.9-2.5-4.1-2.9-6.6c-6.1-38.3-34.2-68.5-72-77.6
		c-6.4-1.5-13-2.4-19.6-2.4c-1.6,0-2.5-0.3-3.4-1.8c-4.3-7-10.3-12.4-17.3-16.7c-9.9-6.2-20.9-9.8-32.2-12.3
		c-12.3-2.7-24.8-4.6-37.4-4.1c-11.4,0.4-22.4,2.7-32.3,8.8c-1.8,1.1-3,1.1-4.8,0c-13.8-8.5-28.8-13.2-45.1-13.8
		c-24.7-1-46.5,6.4-65.5,22.1c-0.7,0.6-1.1,0.6-1.8,0c-6.7-6.3-14.9-8.7-23.7-9.5c-10-0.9-19.9,0.3-29.7,1.6
		c-12.9,1.6-25.6,4.2-38.1,7.7c-9.1,2.5-17.9,5.7-25.9,11c-10.1,6.6-17.5,15.3-20.6,27.2c-0.2,0.9-0.7,1.1-1.5,1
		c-12.8-0.1-25.1,2.4-36.9,7.3c-2.3,1-4.5,2-6.7,3.1c-1.3,0.7-1.6,0.3-1.6-1c-0.1-6.1,0.5-12.1,2.1-18c5.4-19.6,17.1-34.1,36-42.1
		c15-6.4,30.2-5.9,45.2,0.6c3.3,1.4,3.3,1.4,4.4-2c5.1-15.6,14.5-27.8,28.7-36.1c20.3-11.8,46.7-9.4,64.7,5.7c1,0.8,2,1.6,2.9,2.5
		c0.9,0.8,1.4,0.7,2-0.3c2.7-4,5.6-7.9,9.2-11.2c10.1-9.6,21.9-15.6,35.9-16.6c22.8-1.5,40.4,7.9,53.3,26.4c1.7,2.4,3.1,5.1,4.4,7.7
		c0.6,1.3,1.1,1.5,2.2,0.5c6.5-5.3,13.7-9.5,21.8-11.7c19.7-5.2,37.3-1.2,53,11.8c6.3,5.2,11.1,11.7,14.9,18.9
		c1,1.9,1.1,1.9,2.9,0.6c7.1-5.1,14.8-8.9,23.5-10.4c17.8-3.3,33.9,0.8,47.8,12.4c11.4,9.4,18.3,21.7,21.3,36.1
		c0.3,1.4,0.5,2.5,2.3,2.7c13.3,2.1,24.5,8.2,33.6,18.1c9,9.7,14.3,21.1,16.2,34.2c1.5,10.8,0.6,21.3-3,31.5
		C549.7,211.4,549.6,212.1,549,212.6L549,212.6z"/>
	<path class="st3" d="M150.5,149.4c-9.1,5.2-18.1,10.6-26.7,16.5c-8.9,6.1-17.5,12.7-25.7,19.8c-7.3,6.2-14.2,12.9-20.7,19.9
		C65,218.8,54.1,233.2,45,249.1c-7.4,12.8-13.4,26.2-18,40.3c-3.6,11.1-6.2,22.3-7.5,33.9c-0.8,7.4-0.7,14.8-0.4,22.2
		c0.3,9.1,0.3,18.1-2.2,27c-1.3,4.5-3.2,8.6-6.2,12.3c-5.1,6.1-12.2,6.5-18.1,0.8c-2.4-2.3-4.2-4.9-5.7-7.8c-1.2-2.2-2.5-4.3-5-5.2
		c-1.2-0.4-2.5-0.6-3.7-0.2c-1.1,0.3-2,0.2-3-0.4c-3.3-2-6.3-4.2-8.7-7.2c-1.8-2.2-1.8-4.1-0.1-6.5c1-1.4,2.2-2.8,3.1-4.2
		c1.9-3,2.4-6.3,1.4-9.8c-0.6-2.1-2.6-3.2-3.6-5.1c-1-1.8-2.7-2.8-4.4-4c-2.4-1.6-2.6-3.6-0.6-5.6c0.9-0.9,1.7-1.8,2.5-2.8
		c2.4-3.1,2.8-6.6,1.4-10c-2.1-5.1-0.7-9.3,2-13.5c1.2-1.8,2.3-3.6,3.4-5.4c3-4.7,3.6-9.8,2.6-15.2c-0.2-0.9-0.2-1.9-0.2-2.8
		c0-1.9,0.7-3.5,2.5-4.3c5.7-2.4,6.9-7.9,5.7-13.4c-0.3-1.5-0.9-2.9-1.3-4.4c-0.8-3.1-0.1-5.1,2.6-7c1.1-0.8,2.3-1.5,3.5-2.1
		c4.3-2.3,7-5.9,9.1-10.2c1.3-2.6,2.5-5.3,3.8-7.9c1.6-3.2,3.9-5.7,7.2-7.2c2.3-1,4.5-2.2,6.5-3.9c2.7-2.3,4.5-5.3,5.7-8.6
		c0.3-0.8,0.7-1.5,0.9-2.3c1.5-5.2,5-8.1,10.2-9.1c2.7-0.6,5.4-1.4,7.9-2.7c2.8-1.4,4.9-3.6,6.4-6.4c0.9-1.6,1.7-3.2,2.6-4.8
		c2.1-3.7,4.4-4.7,8.6-4.1c2.4,0.4,4.8,0.4,7.2,0.1c5-0.6,8-3.8,9.8-8.3c0.6-1.5,1.1-3.1,1.6-4.7c1.4-4.3,3.3-5.9,7.8-6
		c5.5-0.2,10.3-1.9,14.7-5.2c1.4-1.1,3-2,4.5-3c3.2-2.2,6.6-2.5,10.2-1c2.2,0.8,4.3,1.8,6.3,2.8c1,0.5,1.7,0.4,2.7-0.3
		c2.5-2,5-4,8-5.2c3.7-1.6,7.2-1.6,9.8,2.1c0.6,0.9,1.2,0.9,2,0.4C143.7,151.4,147,150,150.5,149.4L150.5,149.4z"/>
	<path class="st2" d="M14.7,157.1c-3.1,2.4-5.8,4.5-8.4,6.8C-7.5,176.2-17,191.3-22,209.1c-3.4,12-4.3,24.2-2.8,36.6
		c0.1,0.6,0.1,1.3-0.3,1.9c-3,4.1-3.1,8.7-1.6,13.4c0.4,1.4,0.9,2.8,1.1,4.3c0.1,1.4-0.3,2.3-1.6,2.9c-2.2,1-4,2.5-5.3,4.6
		c-1.8,2.9-1.9,6.1-1.6,9.4c0.1,1.5,0.3,3.1,0.5,4.6c0.2,2.4-0.6,4.6-1.8,6.6c-1.5,2.5-3.1,4.8-4.5,7.3c-3.3,5.7-4.5,11.7-1.9,18
		c0.8,1.8,0.2,3.1-1.2,4.4c-3.2,3-4.9,6.7-4.1,11.2c0.5,3.1,1.9,5.5,4.6,7.1c2.3,1.4,3.7,3.4,5.2,5.5c0.7,1,0.4,2-0.2,2.9
		c-1.4,2.1-3.2,3.9-4.3,6.2c-0.5,0.9-1.1,0.2-1.5-0.1c-5.1-3.1-9.8-6.8-13.7-11.3c-12-13.5-17.5-29.4-16.3-47.4
		c1.5-21.9,11.6-39.1,30.3-50.9c1.5-0.9,1.6-1.7,1.1-3.3c-7.8-22.7-4.9-44,9.8-63.1c11.3-14.7,26.6-22.5,45.4-22.9
		C13.5,157.1,13.8,157.1,14.7,157.1L14.7,157.1z"/>
	<path class="st4" d="M168.1,140.3c-5.5-0.6-11.1-0.7-16.6,0.3c-3.1,0.6-6.2,1.4-9.2,2.5c-0.6,0.2-1.1,0.4-1.7,0
		c-5.6-3.1-11.2-2.4-16.7,0.4c-1.9,1-3.6,2.9-5.5,3.1c-1.8,0.2-3.8-1.4-5.9-1.9c-3.6-0.9-7.2-1.1-10.7,0.2c-0.7,0.2-1.3,0.2-1.9,0
		c-6.3-2.1-12.8-3.7-19.4-4.3c-1.1-0.1-1.2-0.4-0.9-1.4c2.6-7.8,7.6-13.8,14-18.7c7.5-5.7,16.2-9,25.2-11.5
		c18.4-5.2,37.1-8.4,56.1-9.5c7.3-0.4,14.5,0.1,21.4,2.9c2.5,1,4.8,2.4,6.8,4.2c0.7,0.6,0.7,1,0.1,1.7c-6.8,7-12.2,15-16.5,23.7
		c-0.3,0.6-0.7,1-1.4,1.3c-5.4,2.1-10.6,4.4-15.9,6.8C169.1,140.3,168.7,140.5,168.1,140.3L168.1,140.3z"/>
	<path class="st5" d="M91.2,151c-2.8,2.4-5.9,3-9.1,3.2c-3.4,0.2-6.6,1-9.5,2.9c-3.4,2.3-5,5.7-6.2,9.5c-0.4,1.5-0.9,2.9-1.5,4.4
		c-0.7,1.6-1.9,2.4-3.8,2.4c-2,0-3.9-0.2-5.9-0.3c-7.2-0.5-12.4,2.7-15.6,9.1c-0.4,0.7-0.8,1.3-1,2.1c-1.4,3.9-4.3,5.8-8.1,6.7
		c-2.1,0.5-4.1,1.2-6.2,1.8c-5.4,1.8-8.9,5.6-11,10.8c-0.5,1.2-1.1,2.4-1.4,3.7c-1.2,4.1-4,6.7-7.8,8.3c-5.3,2.2-9,6.1-11.6,11.2
		c-1.7,3.4-3.1,7-5.1,10.3c-0.8,1.3-1.7,2.4-3,3.2c-0.4,0.2-0.7,0.7-1.2,0.4c-0.4-0.2-0.2-0.7-0.3-1.1c-0.6-13.5,1.6-26.5,6.9-38.9
		c4.8-11.2,11.7-21,20.6-29.3c12.1-11.2,26.2-18.4,42.3-21.6c6.9-1.4,13.9-1.9,21-1.6C79.5,148.5,85.3,149.4,91.2,151L91.2,151z"/>
	<path class="st5" d="M198.4,128.1c15-23.2,36.1-37.3,63.8-40.5c24.9-2.9,47,4.2,66.1,20.5C283.8,106.9,240.6,113.6,198.4,128.1
		L198.4,128.1z"/>
	<path class="st4" d="M331.2,99.4c4-2.3,8-3.9,12.3-5c8.9-2.3,18-2.7,27.2-1.9c12.7,1.1,25.3,3.3,37.4,7.5c9.5,3.3,18.2,7.7,25.3,15
		c1.1,1.1,2,2.3,3,3.5c0.5,0.6,0.5,0.9-0.4,1c-5.9,0.6-11.6,1.8-17.2,3.6c-0.7,0.2-1.4,0.1-2.1-0.1c-14.2-4.4-28.6-7.8-43.3-10.2
		c-10-1.7-20.1-2.9-30.3-3.6c-1.2-0.1-2-0.5-2.8-1.4C337.5,104.7,334.5,102.1,331.2,99.4L331.2,99.4z"/>
	<path class="st5" d="M432.7,128.4c42.9-7.8,86.2,19.9,97.4,61.9C502.2,162.1,469.5,142.3,432.7,128.4L432.7,128.4z"/>
	<path class="st6" d="M493.9,332.8c-9.2,0.1-16.8-1.8-23.6-6.5c-3.3-2.3-6-5.1-7.7-8.9c-3.1-7.1-1.6-13.6,3-19.4
		c5.4-6.8,12.8-10.2,21.1-12c8.4-1.9,16.7-1.5,24.9,1.4c5.3,1.9,10,4.7,13.4,9.2c5.3,6.9,5.1,15.5-0.2,22.5
		c-5.4,7.1-12.9,10.7-21.4,12.7C499.9,332.6,496.4,333,493.9,332.8L493.9,332.8z"/>
	<path class="st6" d="M175.1,356.7c-0.2,6.3-3.5,11.5-8.5,15.7c-7.5,6.2-16.4,8.8-25.9,9.1c-9.3,0.3-17.9-1.7-25.4-7.4
		c-4.8-3.7-7.9-8.6-8-14.9c-0.1-4.8,1.7-8.9,4.7-12.6c5.5-6.7,12.9-10.3,21.3-12c10.1-2.1,19.9-1.3,29.2,3.4
		c5.1,2.6,9.2,6.3,11.5,11.8C174.7,351.9,175.1,354,175.1,356.7L175.1,356.7z"/>
	<path class="st7" d="M319.7,337.5c-10.3-0.2-18.3-4.8-24.7-12.5c-4-4.8-6.8-10.4-8.3-16.5c-0.3-1-0.7-1.3-1.7-1.1
		c-1.6,0.3-3.3,0.4-4.9,0.8c-0.9,0.2-1.2-0.1-1.3-0.9c-0.3-2-0.6-4-1-6c-0.2-0.9,0.1-1.3,1-1.4c10.8-1.6,21.7-3.3,32.5-5
		c12.2-1.9,24.5-3.9,36.7-5.8c2.7-0.4,5.3-0.7,8-1.2c0.9-0.2,1.1,0.2,1.2,0.8c0.4,2,0.7,4.1,1.1,6.1c0.2,1-0.2,1.2-1,1.4
		c-1.4,0.3-2.9,0.8-4.3,0.9c-1.5,0.1-1.7,0.9-1.7,2.2c0.1,6.7-1.1,13.2-4,19.3c-4.5,9.4-11.5,16-21.9,18.4
		C323.6,337.3,321.6,337.5,319.7,337.5L319.7,337.5z"/>
	<path class="st7" d="M229.3,270.5c0,21.5-13.7,39.3-33,43.7c-19.4,4.4-39.5-5.7-47.9-24.2c-2-4.3-3.2-8.9-3.8-13.6
		c-0.2-1.2,0.2-1.5,1.3-1.5c1.6-0.1,3.3-0.1,4.9-0.5c1.6-0.3,1.9,0.3,2.1,1.7c1,7.9,4.3,14.7,9.9,20.4
		c18.2,18.7,48.6,11.2,56.5-13.9c1.7-5.4,2.1-11,1.3-16.6c-0.2-1.1,0.2-1.4,1.2-1.6c1.7-0.3,3.5-0.6,5.2-1c1.3-0.3,1.8,0.1,1.9,1.4
		C229,267.1,229.3,269.4,229.3,270.5L229.3,270.5z"/>
	<path class="st7" d="M466.7,238.7c0,20.7-13.7,38.2-33.5,42.7c-17.3,4-35.7-4.2-45.1-20c-3.3-5.6-5.3-11.5-6.1-18
		c-0.1-0.9,0-1.3,1-1.4c2-0.1,4.1-0.3,6.1-0.5c1.5-0.2,1.1,1,1.2,1.6c0.9,6.5,3.3,12.5,7.4,17.6c8.4,10.4,19.3,15.2,32.5,12.8
		c13.1-2.3,21.6-10.4,26.2-22.7c2.1-5.7,2.6-11.6,1.7-17.5c-0.2-1.1,0-1.6,1.2-1.7c1.9-0.3,3.8-0.7,5.7-1.1c0.9-0.2,1.1,0.2,1.3,1
		C466.5,233.9,466.7,236.3,466.7,238.7L466.7,238.7z"/>
	<path class="st8" d="M81.9,310.8c0-5.3,3.2-8.2,8-8.3c4.4-0.1,7.9,3.7,7.9,8.4c0,4.7-3.3,8.1-7.9,8.1
		C85,318.9,81.9,315.8,81.9,310.8L81.9,310.8z"/>
	<path class="st8" d="M119.1,314.6c4.7-0.4,8,3.2,8,7.9c0,4.5-2.5,8.3-8.1,8.4c-4.1,0-8-3.3-7.7-8.3
		C111.5,317.6,114.2,314.6,119.1,314.6L119.1,314.6z"/>
	<path class="st8" d="M111.3,295c0-4.8,3.3-8.2,7.8-8.1c5,0.1,7.8,3.5,8,8.4c0.1,4.6-3.5,8.1-8.1,8C114.4,303.4,111.3,300,111.3,295
		L111.3,295z"/>
	<path class="st8" d="M489.7,268.3c0.3-5.2,3.5-8.4,8.3-8.1c4.7,0.3,7.6,4,7.4,9.3c-0.2,4.4-4,7.5-8.7,7.2
		C492.4,276.4,489.5,272.8,489.7,268.3L489.7,268.3z"/>
	<path class="st8" d="M534.7,256.6c0,4.8-3.2,8.1-7.7,8.2c-4.8,0.1-8.1-3.6-8-8.2c0.1-5.2,3.3-8.3,8-8.3
		C531.6,248.3,534.7,251.6,534.7,256.6L534.7,256.6z"/>
	<path class="st8" d="M505.3,240.9c0.5,4.6-3.1,8.3-7.8,8.3c-4.6,0-7.9-3.6-7.9-8.3c0-4.4,3.3-8.3,8.1-8.3
		C501.7,232.7,505.8,236.2,505.3,240.9L505.3,240.9z"/>
	<path class="st7" d="M-6.9,344.7c-5.8,0-9.4-2.4-10.7-7.2c-0.8-2.9,0-5.6,2.1-6.9c0.9-0.5,1.8-0.7,2.6-0.2c0.9,0.5,0.9,1.3,0.7,2.3
		c-0.3,2.2,1,3.6,3.3,3.8c1.8,0.1,3.3-0.8,4.9-1.4c1.5-0.5,2.9-0.9,4.5-0.3c3.3,1.3,4,4.9,1.4,7.3C0.1,343.8-3,344.7-6.9,344.7
		L-6.9,344.7z"/>
	<path class="st7" d="M6,373.5c0,1.6-1.3,3.3-3.5,4.4c-2.3,1.2-4.5,0.8-6.5-0.7c-2-1.6-2.8-3.7-2.3-6.3c0.2-0.8,0.6-1.3,1.4-1.4
		c0.8-0.1,1.4,0,1.9,0.7c0.2,0.3,0.4,0.6,0.7,0.9c0.4,0.5,0.7,1.2,1.3,1.1c0.6-0.1,0.5-0.9,0.7-1.3c0.5-1.3,2.1-2.2,3.5-2
		C5,369.2,6,370.5,6,373.5L6,373.5z"/>
	<path class="st7" d="M28,219.9c0-2.7,1-4.8,3.5-6c2.5-1.2,5-0.6,7.1,1c1.5,1.1,1.7,3.5,0.6,4.9c-1.1,1.3-2.8,1.3-4,0
		c-0.4-0.4-0.5-1.1-1.4-0.9c-0.8,0.2-1,0.9-1,1.5c-0.1,1.2-0.1,2.4-0.1,3.6c0,0.8-0.2,1.5-1,1.9c-0.9,0.3-1.4-0.3-1.9-0.9
		C28.6,223.5,27.9,221.8,28,219.9L28,219.9z"/>
	<path class="st7" d="M0.8,258.1c1.1,0.1,2.2,0.2,3.2,0.4c1.7,0.3,2.5,1.6,2.3,3.2c-0.2,1.6-1.5,2.5-3.3,2.3c-1.3-0.2-2.6-0.5-3.9,0
		c-0.9,0.3-1.2,0.8-0.9,1.8c0.4,1.1,1.1,2.2-0.4,3c-1.2,0.6-3-0.1-3.8-1.3c-1.9-2.8-0.8-6.8,2.3-8.3C-2.2,258.5-0.6,258.3,0.8,258.1
		L0.8,258.1z"/>
	<path class="st7" d="M65.5,186.3c1.4,0,2.7,1.2,2.8,2.6c0.1,1.5-0.7,2.5-2.6,2.8c-1.2,0.2-2.7,0-2.9,1.7c-0.2,1.7,1,2.7,2.4,3.4
		c0.4,0.2,1.1,0.3,1,0.9c0,0.7-0.7,0.8-1.2,1c-1.9,0.7-4.2,0.1-5.7-1.6c-1.6-1.8-2.1-4.4-1.1-6.5C59.6,187.7,62.1,186.5,65.5,186.3
		L65.5,186.3z"/>
	<path class="st7" d="M8.3,284.5c0.1-1.9,1.2-4.3,3.9-5.9c1.7-1,3.3-0.7,4.2,0.8c1,1.6,0.6,2.8-1.2,3.9c-2.2,1.3-2.4,3.4-0.7,6.1
		c0.4,0.6,1.3,1.1,0.7,2c-0.6,0.8-1.5,0.5-2.3,0.3C9.9,291.1,8.3,288.9,8.3,284.5L8.3,284.5z"/>
	<path class="st7" d="M16.4,226.5c2.2,0,3.4,0.8,3.7,2.3c0.3,1.4-0.4,2.6-2,2.9c-0.8,0.2-1.7,0.3-2.6,0.4c-1.9,0.3-3.3,1.2-4,3
		c-0.3,0.9-0.6,2-1.8,1.8c-1.2-0.3-2.1-1.2-2.2-2.5c-0.3-2.7,1.1-5.2,3.9-6.7C13,226.9,14.7,226.4,16.4,226.5L16.4,226.5z"/>
	<path class="st7" d="M102.7,163.7c2.4,0.3,4.7,0.7,6.3,2.8c1,1.3,0.8,2.9-0.4,4c-1.3,1.1-2.9,1-4-0.2c-2.2-2.6-5-2.6-7.4-0.1
		c-0.4,0.4-0.6,1.2-1.4,0.8c-0.8-0.4-0.7-1.2-0.6-1.9c0.4-2.8,2.4-4.6,5.9-5.1C101.6,163.9,102.2,163.8,102.7,163.7L102.7,163.7z"/>
	<path class="st7" d="M-19.8,363.9c-2.2,0.1-3.8-0.9-4.9-2.7c-1-1.7-0.7-3.5,0.3-5.2c0.4-0.7,1-1.2,1.7-1.5c0.8-0.3,1.6-0.7,2.3,0.1
		c0.7,0.8,0.3,1.5-0.3,2.2c-0.4,0.5-0.9,1.1-0.3,1.8c0.6,0.8,1.2,0,1.7-0.2c1.1-0.5,2.1-0.7,3.1,0.1c0.7,0.5,1.2,1.2,1,2.1
		c-0.4,1.4-1.1,2.5-2.5,3.1C-18.4,363.8-19.1,363.9-19.8,363.9L-19.8,363.9z"/>
	<path class="st7" d="M-23.8,305.7c0.3,0.1,0.6,0.3,0.9,0.3c1,0.2,1.7,0.8,1.8,1.8c0.1,1.1-0.4,1.9-1.4,2.4c-1.6,0.8-3.6,0.5-5-0.9
		c-1.6-1.6-2-3.8-1-5.7c0.8-1.5,3-2.5,4.6-2.1c1.2,0.3,2.6,0.8,2.6,2.3C-21.1,305.5-22.6,305.3-23.8,305.7L-23.8,305.7z"/>
	<path class="st7" d="M29.3,246.5c0.2-3,2.5-5.8,5.3-6.6c1.7-0.5,3.4,0.1,3.7,1.4c0.4,1.4-0.4,2.5-2.2,3.1c-2.1,0.8-3.5,2.9-3.2,5.1
		c0.1,0.7,0,1.2-0.6,1.5c-0.6,0.3-1-0.2-1.4-0.5C29.7,249.4,29.3,248,29.3,246.5L29.3,246.5z"/>
	<path class="st9" d="M311.4,327.2c-5.3-2.2-9.2-6.1-12.3-10.8c-1.9-2.9-3.3-6.1-4.3-9.5c-0.2-0.8-0.2-1.1,0.8-1.2
		c13.1-2,26.3-4.1,39.4-6.2c2.2-0.3,4.3-0.7,6.5-1c0.8-0.1,1.5-0.3,1.5,1c-0.2,9.2-2.6,17.5-9.5,24c-0.7,0.1-1-0.4-1.3-0.9
		c-1.9-3.4-5.1-4.3-8.5-4.3c-2.9,0-5.8,0.8-8.3,2.4c-1.8,1.2-3.1,2.8-3.4,5C312,326.3,311.9,326.9,311.4,327.2L311.4,327.2z"/>
	<path class="st6" d="M311.4,327.2c-0.4-3,1-5.1,3.3-6.8c4.5-3.4,11.7-3.6,16.1-0.6c1.3,0.9,1.8,2.5,2.7,3.7
		C327.9,329.3,317.8,330.9,311.4,327.2L311.4,327.2z"/>
</g>
</svg>
