<?xml version="1.0" encoding="UTF-8"?>
<svg width="610.43" height="142.39" fill-rule="evenodd" image-rendering="optimizeQuality" shape-rendering="geometricPrecision" text-rendering="geometricPrecision" viewBox="0 0 210 297" xmlns="http://www.w3.org/2000/svg">
 <path d="m-515.4 4.7491v10.091h9.9628c3.0079-4e-5 5.4284 2.4205 5.4284 5.4284v25.993c0 3.0079-2.4205 5.4284-5.4284 5.4284h-9.9628v198.36h12.198c3.0079 5e-5 5.4284 2.4205 5.4284 5.4284v25.929c0 3.008-2.4205 5.4285-5.4284 5.4284h-12.198v8.3662h1246.9v-62.714h-29.952v-162.92h29.952v-64.822h-1246.9zm33.784 10.091h16.732c3.008-4e-5 5.4923 2.4205 5.4923 5.4284v25.993c0 3.0079-2.4844 5.4284-5.4923 5.4284h-16.732c-3.0079-4e-5 -5.4284-2.4205-5.4284-5.4284v-25.993c1e-5 -3.008 2.4205-5.4285 5.4284-5.4284zm40.554 0h16.796c3.008-4e-5 5.4284 2.4205 5.4284 5.4284v25.993c0 3.0079-2.4205 5.4284-5.4284 5.4284h-16.796c-3.008-4e-5 -5.4284-2.4205-5.4284-5.4284v-25.993c0-3.008 2.4205-5.4285 5.4284-5.4284zm40.617 0h16.732c3.0079-4e-5 5.4284 2.4205 5.4284 5.4284v25.993c0 3.0079-2.4205 5.4284-5.4284 5.4284h-16.732c-3.008-4e-5 -5.4284-2.4205-5.4284-5.4284v-25.993c1e-5 -3.008 2.4205-5.4285 5.4284-5.4284zm40.554 0h16.796c3.0079-4e-5 5.4284 2.4205 5.4284 5.4284v25.993c0 3.0079-2.4205 5.4284-5.4284 5.4284h-16.796c-3.008-4e-5 -5.4284-2.4205-5.4284-5.4284v-25.993c0-3.008 2.4205-5.4285 5.4284-5.4284zm40.617 0h16.732c3.008-4e-5 5.4284 2.4205 5.4284 5.4284v25.993c0 3.0079-2.4205 5.4284-5.4284 5.4284h-16.732c-3.0079-4e-5 -5.4284-2.4205-5.4284-5.4284v-25.993c0-3.008 2.4205-5.4285 5.4284-5.4284zm40.554 0h16.796c3.008-4e-5 5.4284 2.4205 5.4284 5.4284v25.993c1e-5 3.0079-2.4205 5.4284-5.4284 5.4284h-16.796c-3.008-4e-5 -5.4284-2.4205-5.4284-5.4284v-25.993c2e-5 -3.008 2.4205-5.4285 5.4284-5.4284zm40.618 0h16.732c3.008-4e-5 5.4284 2.4205 5.4284 5.4284v25.993c0 3.0079-2.4205 5.4284-5.4284 5.4284h-16.732c-3.0079-4e-5 -5.4284-2.4205-5.4284-5.4284v-25.993c0-3.008 2.4205-5.4285 5.4284-5.4284zm40.554 0h16.796c3.0079-4e-5 5.4284 2.4205 5.4284 5.4284v25.993c0 3.0079-2.4205 5.4284-5.4284 5.4284h-16.796c-3.0079-4e-5 -5.4284-2.4205-5.4284-5.4284v-25.993c0-3.008 2.4205-5.4285 5.4284-5.4284zm40.618 0h16.732c3.0079-4e-5 5.4284 2.4205 5.4284 5.4284v25.993c-2e-5 3.0079-2.4205 5.4284-5.4284 5.4284h-16.732c-3.008-4e-5 -5.4923-2.4205-5.4923-5.4284v-25.993c-3e-5 -3.008 2.4843-5.4285 5.4923-5.4284zm40.554 0h16.796c3.008-4e-5 5.4284 2.4205 5.4284 5.4284v25.993c0 3.0079-2.4205 5.4284-5.4284 5.4284h-16.796c-3.008-4e-5 -5.4285-2.4205-5.4284-5.4284v-25.993c0-3.008 2.4205-5.4285 5.4284-5.4284zm40.554 0h16.796c3.0079-4e-5 5.4284 2.4205 5.4284 5.4284v25.993c0 3.0079-2.4205 5.4284-5.4284 5.4284h-16.796c-3.0079-4e-5 -5.4284-2.4205-5.4284-5.4284v-25.993c2e-5 -3.008 2.4205-5.4285 5.4284-5.4284zm40.618 0h16.796c3.008-4e-5 5.4284 2.4205 5.4284 5.4284v25.993c-2e-5 3.0079-2.4205 5.4284-5.4284 5.4284h-16.796c-3.008-4e-5 -5.4284-2.4205-5.4284-5.4284v-25.993c-3e-5 -3.008 2.4205-5.4285 5.4284-5.4284zm40.554 0h16.796c3.0079-4e-5 5.4284 2.4205 5.4284 5.4284v25.993c-2e-5 3.0079-2.4205 5.4284-5.4284 5.4284h-16.796c-3.008-4e-5 -5.4284-2.4205-5.4284-5.4284v-25.993c-2e-5 -3.008 2.4205-5.4285 5.4284-5.4284zm40.618 0h16.796c3.0079-2e-5 5.4284 2.4205 5.4284 5.4284v25.993c-2e-5 3.0079-2.4205 5.4284-5.4284 5.4284h-16.796c-3.008-2e-5 -5.4284-2.4205-5.4284-5.4284v-25.993c-2e-5 -3.008 2.4205-5.4285 5.4284-5.4284zm40.554 0h16.796c3.008-2e-5 5.4284 2.4205 5.4284 5.4284v25.993c7e-5 3.0079-2.4205 5.4284-5.4284 5.4284h-16.796c-3.0079-2e-5 -5.4285-2.4205-5.4285-5.4284v-25.993c7e-5 -3.008 2.4205-5.4285 5.4285-5.4284zm40.617 0h16.796c3.008-2e-5 5.4284 2.4205 5.4284 5.4284v25.993c9e-5 3.0079-2.4205 5.4284-5.4284 5.4284h-16.796c-3.008-2e-5 -5.4284-2.4205-5.4284-5.4284v-25.993c0-3.008 2.4205-5.4285 5.4284-5.4284zm40.554 0h16.796c3.0079-2e-5 5.4284 2.4205 5.4284 5.4284v25.993c0 3.0079-2.4205 5.4284-5.4284 5.4284h-16.796c-3.008-2e-5 -5.4285-2.4205-5.4284-5.4284v-25.993c0-3.008 2.4205-5.4285 5.4284-5.4284zm40.617 0h16.796c3.008-2e-5 5.4284 2.4205 5.4284 5.4284v25.993c0 3.0079-2.4205 5.4284-5.4284 5.4284h-16.796c-3.008-2e-5 -5.4285-2.4205-5.4285-5.4284v-25.993c0-3.008 2.4205-5.4285 5.4285-5.4284zm40.554 0h16.796c3.0079-2e-5 5.4284 2.4205 5.4284 5.4284v25.993c0 3.0079-2.4205 5.4284-5.4284 5.4284h-16.796c-3.0079-2e-5 -5.4284-2.4205-5.4284-5.4284v-25.993c0-3.008 2.4205-5.4285 5.4284-5.4284zm40.618 0h16.796c3.008-2e-5 5.4284 2.4205 5.4285 5.4284v25.993c0 3.0079-2.4205 5.4284-5.4285 5.4284h-16.796c-3.008-2e-5 -5.4285-2.4205-5.4284-5.4284v-25.993c0-3.008 2.4204-5.4285 5.4284-5.4284zm40.554 0h16.796c3.008-2e-5 5.4284 2.4205 5.4284 5.4284v25.993c0 3.0079-2.4205 5.4284-5.4284 5.4284h-16.796c-3.008-2e-5 -5.4285-2.4205-5.4285-5.4284v-25.993c0-3.008 2.4205-5.4285 5.4285-5.4284zm40.617 0h16.796c3.0079-2e-5 5.4284 2.4205 5.4284 5.4284v25.993c0 3.0079-2.4205 5.4284-5.4284 5.4284h-16.796c-3.0079-2e-5 -5.4284-2.4205-5.4284-5.4284v-25.993c0-3.008 2.4205-5.4285 5.4284-5.4284zm40.554 0h16.796c3.008-2e-5 5.4285 2.4205 5.4285 5.4284v25.993c0 3.0079-2.4205 5.4284-5.4285 5.4284h-16.796c-3.008-2e-5 -5.4284-2.4205-5.4284-5.4284v-25.993c0-3.008 2.4204-5.4285 5.4284-5.4284zm40.618 0h16.732c3.0079-2e-5 5.4284 2.4205 5.4284 5.4284v25.993c9e-5 3.0079-2.4205 5.4284-5.4284 5.4284h-16.732c-3.008-2e-5 -5.4284-2.4205-5.4285-5.4284v-25.993c7e-5 -3.008 2.4206-5.4285 5.4285-5.4284zm40.554 0h16.796c3.0079-2e-5 5.4284 2.4205 5.4284 5.4284v25.993c-8e-5 3.0079-2.4205 5.4284-5.4284 5.4284h-16.796c-3.0079-2e-5 -5.4284-2.4205-5.4284-5.4284v-25.993c-8e-5 -3.008 2.4205-5.4285 5.4284-5.4284zm40.618 0h16.732c3.008-2e-5 5.4285 2.4205 5.4285 5.4284v25.993c0 3.0079-2.4205 5.4284-5.4285 5.4284h-16.732c-3.0079-2e-5 -5.4284-2.4205-5.4284-5.4284v-25.993c0-3.008 2.4205-5.4285 5.4284-5.4284zm40.554 0h16.796c3.0079-2e-5 5.4284 2.4205 5.4284 5.4284v25.993c0 3.0079-2.4205 5.4284-5.4284 5.4284h-16.796c-3.008-2e-5 -5.4284-2.4205-5.4284-5.4284v-25.993c0-3.008 2.4206-5.4285 5.4284-5.4284zm40.618 0h16.732c3.0079-2e-5 5.4284 2.4205 5.4284 5.4284v25.993c-8e-5 3.0079-2.4205 5.4284-5.4284 5.4284h-16.732c-3.008-2e-5 -5.4284-2.4205-5.4284-5.4284v-25.993c-7e-5 -3.008 2.4205-5.4285 5.4284-5.4284zm40.554 0h16.796c3.008-2e-5 5.4284 2.4205 5.4284 5.4284v25.993c7e-5 3.0079-2.4205 5.4284-5.4284 5.4284h-16.796c-3.0079-2e-5 -5.4284-2.4205-5.4284-5.4284v-25.993c0-3.008 2.4205-5.4285 5.4284-5.4284zm40.554 0h16.796c3.0079-1e-4 5.4284 2.4205 5.4284 5.4284v25.993c0 3.0078-2.4205 5.4284-5.4284 5.4284h-16.796c-3.0079-1e-4 -5.4284-2.4205-5.4284-5.4284v-25.993c0-3.008 2.4206-5.4284 5.4284-5.4284zm-1188 53.263h217.2v162.92h-217.2v-162.92zm238.98 0h217.2v162.92h-217.2v-162.92zm239.04 0h217.2v162.92h-217.2v-162.92zm239.04 0h217.14v162.92h-217.14v-162.92zm238.98 0h217.2v162.92h-217.2v-162.92zm-942.7 181.95h16.732c3.008 5e-5 5.4284 2.4205 5.4284 5.4284v25.929c0 3.008-2.4205 5.4285-5.4284 5.4284h-16.732c-3.008 5e-5 -5.4284-2.4205-5.4284-5.4284v-25.929c-1e-5 -3.0079 2.4205-5.4284 5.4284-5.4284zm40.554 0h16.796c3.0079 5e-5 5.4284 2.4205 5.4284 5.4284v25.929c0 3.008-2.4205 5.4285-5.4284 5.4284h-16.796c-3.0079 5e-5 -5.4284-2.4205-5.4284-5.4284v-25.929c0-3.0079 2.4205-5.4284 5.4284-5.4284zm40.618 0h16.732c3.0079 5e-5 5.4284 2.4205 5.4284 5.4284v25.929c0 3.008-2.4205 5.4285-5.4284 5.4284h-16.732c-3.008 5e-5 -5.4284-2.4205-5.4284-5.4284v-25.929c1e-5 -3.0079 2.4205-5.4284 5.4284-5.4284zm40.554 0h16.796c3.0079 5e-5 5.4284 2.4205 5.4284 5.4284v25.929c0 3.008-2.4205 5.4285-5.4284 5.4284h-16.796c-3.0079 5e-5 -5.4284-2.4205-5.4284-5.4284v-25.929c0-3.0079 2.4205-5.4284 5.4284-5.4284zm40.618 0h16.732c3.0079 5e-5 5.4284 2.4205 5.4284 5.4284v25.929c0 3.008-2.4205 5.4285-5.4284 5.4284h-16.732c-3.008 5e-5 -5.4284-2.4205-5.4284-5.4284v-25.929c0-3.0079 2.4205-5.4284 5.4284-5.4284zm40.554 0h16.796c3.0079 5e-5 5.4284 2.4205 5.4284 5.4284v25.929c0 3.008-2.4205 5.4285-5.4284 5.4284h-16.796c-3.0079 5e-5 -5.4284-2.4205-5.4284-5.4284v-25.929c0-3.0079 2.4205-5.4284 5.4284-5.4284zm40.554 0h16.796c3.0079 5e-5 5.4284 2.4205 5.4284 5.4284v25.929c2e-5 3.008-2.4205 5.4285-5.4284 5.4284h-16.796c-3.0079 5e-5 -5.4284-2.4205-5.4284-5.4284v-25.929c0-3.0079 2.4205-5.4284 5.4284-5.4284zm40.617 0h16.796c3.008 5e-5 5.4284 2.4205 5.4284 5.4284v25.929c-2e-5 3.008-2.4205 5.4285-5.4284 5.4284h-16.796c-3.0079 5e-5 -5.4284-2.4205-5.4284-5.4284v-25.929c-2e-5 -3.0079 2.4205-5.4284 5.4284-5.4284zm40.554 0h16.796c3.0079 5e-5 5.4284 2.4205 5.4284 5.4284v25.929c-3e-5 3.008-2.4205 5.4285-5.4284 5.4284h-16.796c-3.008 5e-5 -5.4284-2.4205-5.4284-5.4284v-25.929c-2e-5 -3.0079 2.4205-5.4284 5.4284-5.4284zm40.618 0h16.796c3.008 5e-5 5.4285 2.4205 5.4284 5.4284v25.929c3e-5 3.008-2.4205 5.4285-5.4284 5.4284h-16.796c-3.0079 5e-5 -5.4285-2.4205-5.4284-5.4284v-25.929c-3e-5 -3.0079 2.4205-5.4284 5.4284-5.4284zm40.554 0h16.796c3.0079 5e-5 5.4284 2.4205 5.4284 5.4284v25.929c-2e-5 3.008-2.4205 5.4285-5.4284 5.4284h-16.796c-3.0079 5e-5 -5.4284-2.4205-5.4284-5.4284v-25.929c5e-5 -3.0079 2.4205-5.4284 5.4284-5.4284zm40.618 0h16.796c3.008 5e-5 5.4284 2.4205 5.4284 5.4284v25.929c2e-5 3.008-2.4205 5.4285-5.4284 5.4284h-16.796c-3.0079 5e-5 -5.4284-2.4205-5.4284-5.4284v-25.929c2e-5 -3.0079 2.4205-5.4284 5.4284-5.4284zm40.554 0h16.796c3.008 5e-5 5.4284 2.4205 5.4284 5.4284v25.929c3e-5 3.008-2.4205 5.4285-5.4284 5.4284h-16.796c-3.008 5e-5 -5.4284-2.4205-5.4284-5.4284v-25.929c2e-5 -3.0079 2.4205-5.4284 5.4284-5.4284zm40.618 0h16.796c3.008 1e-5 5.4284 2.4205 5.4284 5.4284v25.929c-2e-5 3.008-2.4205 5.4285-5.4284 5.4284h-16.796c-3.008 4e-5 -5.4284-2.4205-5.4284-5.4284v-25.929c-2e-5 -3.0079 2.4205-5.4284 5.4284-5.4284zm40.554 0h16.796c3.0079 1e-5 5.4284 2.4205 5.4284 5.4284v25.929c6e-5 3.008-2.4205 5.4285-5.4284 5.4284h-16.796c-3.0079 4e-5 -5.4285-2.4205-5.4285-5.4284v-25.929c7e-5 -3.0079 2.4205-5.4284 5.4285-5.4284zm40.617 0h16.796c3.008 1e-5 5.4284 2.4205 5.4284 5.4284v25.929c0 3.008-2.4205 5.4285-5.4284 5.4284h-16.796c-3.0079 4e-5 -5.4284-2.4205-5.4284-5.4284v-25.929c0-3.0079 2.4205-5.4284 5.4284-5.4284zm40.554 0h16.796c3.0079 1e-5 5.4284 2.4205 5.4285 5.4284v25.929c0 3.008-2.4205 5.4285-5.4285 5.4284h-16.796c-3.0079 4e-5 -5.4285-2.4205-5.4284-5.4284v-25.929c0-3.0079 2.4205-5.4284 5.4284-5.4284zm40.617 0h16.796c3.008 1e-5 5.4284 2.4205 5.4284 5.4284v25.929c0 3.008-2.4205 5.4285-5.4284 5.4284h-16.796c-3.008 4e-5 -5.4285-2.4205-5.4285-5.4284v-25.929c0-3.0079 2.4205-5.4284 5.4285-5.4284zm40.554 0h16.796c3.0079 1e-5 5.4284 2.4205 5.4284 5.4284v25.929c0 3.008-2.4205 5.4285-5.4284 5.4284h-16.796c-3.0079 4e-5 -5.4284-2.4205-5.4284-5.4284v-25.929c0-3.0079 2.4205-5.4284 5.4284-5.4284zm40.618 0h16.796c3.008 1e-5 5.4284 2.4205 5.4285 5.4284v25.929c0 3.008-2.4206 5.4285-5.4285 5.4284h-16.796c-3.008 4e-5 -5.4285-2.4205-5.4284-5.4284v-25.929c0-3.0079 2.4205-5.4284 5.4284-5.4284zm40.554 0h16.796c3.008 1e-5 5.4284 2.4205 5.4284 5.4284v25.929c7e-5 3.008-2.4205 5.4285-5.4284 5.4284h-16.796c-3.008 4e-5 -5.4285-2.4205-5.4285-5.4284v-25.929c9e-5 -3.0079 2.4205-5.4284 5.4285-5.4284zm40.617 0h16.732c3.0079 1e-5 5.4284 2.4205 5.4284 5.4284v25.929c0 3.008-2.4205 5.4285-5.4284 5.4284h-16.732c-3.008 4e-5 -5.4284-2.4205-5.4284-5.4284v-25.929c0-3.0079 2.4205-5.4284 5.4284-5.4284zm40.554 0h16.796c3.008 1e-5 5.4285 2.4205 5.4285 5.4284v25.929c0 3.008-2.4205 5.4285-5.4285 5.4284h-16.796c-3.008 4e-5 -5.4284-2.4205-5.4284-5.4284v-25.929c-8e-5 -3.0079 2.4205-5.4284 5.4284-5.4284zm40.618 0h16.732c3.008 1e-5 5.4285 2.4205 5.4284 5.4284v25.929c0 3.008-2.4205 5.4285-5.4284 5.4284h-16.732c-3.008 4e-5 -5.4284-2.4205-5.4285-5.4284v-25.929c7e-5 -3.0079 2.4205-5.4284 5.4285-5.4284zm40.554 0h16.796c3.0079 1e-5 5.4284 2.4205 5.4284 5.4284v25.929c0 3.008-2.4205 5.4285-5.4284 5.4284h-16.796c-3.008 4e-5 -5.4284-2.4205-5.4284-5.4284v-25.929c0-3.0079 2.4205-5.4284 5.4284-5.4284zm40.618 0h16.732c3.008 1e-5 5.4285 2.4205 5.4285 5.4284v25.929c-9e-5 3.008-2.4205 5.4285-5.4285 5.4284h-16.732c-3.0079 4e-5 -5.4284-2.4205-5.4284-5.4284v-25.929c-7e-5 -3.0079 2.4205-5.4284 5.4284-5.4284zm40.554 0h16.796c3.0079 1e-5 5.4284 2.4205 5.4284 5.4284v25.929c0 3.008-2.4205 5.4285-5.4284 5.4284h-16.796c-3.008 4e-5 -5.4285-2.4205-5.4285-5.4284v-25.929c0-3.0079 2.4205-5.4284 5.4285-5.4284zm40.554 0h16.796c3.008 1e-5 5.4284 2.4205 5.4284 5.4284v25.929c0 3.008-2.4205 5.4285-5.4284 5.4284h-16.796c-3.0079 4e-5 -5.4284-2.4205-5.4284-5.4284v-25.929c0-3.0079 2.4204-5.4284 5.4284-5.4284zm40.618 0h16.796c3.008 1e-5 5.4284 2.4205 5.4284 5.4284v25.929c0 3.008-2.4205 5.4285-5.4284 5.4284h-16.796c-3.0079 4e-5 -5.4284-2.4205-5.4284-5.4284v-25.929c-7e-5 -3.0079 2.4205-5.4284 5.4284-5.4284zm40.554 0h16.796c3.0079 1e-5 5.4284 2.4205 5.4284 5.4284v25.929c0 3.008-2.4205 5.4285-5.4284 5.4284h-16.796c-3.008 4e-5 -5.4285-2.4205-5.4285-5.4284v-25.929c0-3.0079 2.4205-5.4284 5.4285-5.4284z" stroke="#1f1a17" stroke-width=".55178"/>
</svg>
